<mxfile host="Electron" agent="Mozilla/5.0 (Windows NT 10.0; Win64; x64) AppleWebKit/537.36 (KHTML, like Gecko) draw.io/26.0.4 Chrome/128.0.6613.186 Electron/32.2.5 Safari/537.36" version="26.0.4">
  <diagram name="Page-1" id="e7e014a7-5840-1c2e-5031-d8a46d1fe8dd">
    <mxGraphModel dx="1091" dy="629" grid="1" gridSize="10" guides="1" tooltips="1" connect="1" arrows="1" fold="1" page="1" pageScale="1" pageWidth="1169" pageHeight="826" background="none" math="0" shadow="0">
      <root>
        <mxCell id="0" />
        <mxCell id="1" parent="0" />
        <mxCell id="2" value="User" style="swimlane;whiteSpace=wrap" parent="1" vertex="1">
          <mxGeometry x="164.5" y="128" width="280.5" height="570" as="geometry" />
        </mxCell>
        <mxCell id="5" value="" style="ellipse;shape=startState;fillColor=#000000;strokeColor=#ff0000;" parent="2" vertex="1">
          <mxGeometry x="100" y="40" width="30" height="30" as="geometry" />
        </mxCell>
        <mxCell id="6" value="" style="edgeStyle=elbowEdgeStyle;elbow=horizontal;verticalAlign=bottom;endArrow=open;endSize=8;strokeColor=#FF0000;endFill=1;rounded=0" parent="2" source="5" target="WxXXP-2BDXsEtTycnM5P-42" edge="1">
          <mxGeometry x="100" y="40" as="geometry">
            <mxPoint x="115.02631578947376" y="110" as="targetPoint" />
          </mxGeometry>
        </mxCell>
        <mxCell id="8" value="Nhập thông tin" style="" parent="2" vertex="1">
          <mxGeometry x="60" y="220" width="110" height="50" as="geometry" />
        </mxCell>
        <mxCell id="WxXXP-2BDXsEtTycnM5P-42" value="&lt;span style=&quot;text-wrap: nowrap;&quot;&gt;Truy cập vào trang&lt;/span&gt;&lt;br style=&quot;padding: 0px; margin: 0px; text-wrap: nowrap;&quot;&gt;&lt;span style=&quot;text-wrap: nowrap;&quot;&gt;đăng ký&lt;/span&gt;" style="rounded=1;whiteSpace=wrap;html=1;arcSize=40;fontColor=#000000;fillColor=#ffffc0;strokeColor=#ff0000;" vertex="1" parent="2">
          <mxGeometry x="55" y="112" width="120" height="40" as="geometry" />
        </mxCell>
        <mxCell id="WxXXP-2BDXsEtTycnM5P-43" value="" style="edgeStyle=orthogonalEdgeStyle;html=1;verticalAlign=bottom;endArrow=open;endSize=8;strokeColor=#ff0000;rounded=0;" edge="1" source="WxXXP-2BDXsEtTycnM5P-42" parent="2" target="8">
          <mxGeometry relative="1" as="geometry">
            <mxPoint x="220.5" y="170" as="targetPoint" />
          </mxGeometry>
        </mxCell>
        <mxCell id="WxXXP-2BDXsEtTycnM5P-55" value="Nhập OTP" style="html=1;whiteSpace=wrap;" vertex="1" parent="2">
          <mxGeometry x="60.5" y="308" width="110" height="50" as="geometry" />
        </mxCell>
        <mxCell id="3" value="System" style="swimlane;whiteSpace=wrap" parent="1" vertex="1">
          <mxGeometry x="444.5" y="128" width="435.5" height="570" as="geometry" />
        </mxCell>
        <mxCell id="WxXXP-2BDXsEtTycnM5P-44" value="Hệ thống kiểm tra thông tin" style="rounded=1;whiteSpace=wrap;html=1;arcSize=40;fontColor=#000000;fillColor=#ffffc0;strokeColor=#ff0000;" vertex="1" parent="3">
          <mxGeometry x="75.5" y="112" width="120" height="40" as="geometry" />
        </mxCell>
        <mxCell id="WxXXP-2BDXsEtTycnM5P-45" value="" style="edgeStyle=orthogonalEdgeStyle;html=1;verticalAlign=bottom;endArrow=open;endSize=8;strokeColor=#ff0000;rounded=0;" edge="1" source="WxXXP-2BDXsEtTycnM5P-44" parent="3">
          <mxGeometry relative="1" as="geometry">
            <mxPoint x="135.5" y="212" as="targetPoint" />
          </mxGeometry>
        </mxCell>
        <mxCell id="WxXXP-2BDXsEtTycnM5P-47" value="" style="edgeStyle=orthogonalEdgeStyle;rounded=0;orthogonalLoop=1;jettySize=auto;html=1;dashed=1;" edge="1" parent="3" source="WxXXP-2BDXsEtTycnM5P-46" target="WxXXP-2BDXsEtTycnM5P-44">
          <mxGeometry relative="1" as="geometry" />
        </mxCell>
        <mxCell id="WxXXP-2BDXsEtTycnM5P-46" value="Tài khoản" style="rounded=0;whiteSpace=wrap;html=1;" vertex="1" parent="3">
          <mxGeometry x="215.5" y="22" width="120" height="52" as="geometry" />
        </mxCell>
        <mxCell id="WxXXP-2BDXsEtTycnM5P-48" value="" style="rhombus;whiteSpace=wrap;html=1;fontColor=#000000;fillColor=#ffffc0;strokeColor=#ff0000;" vertex="1" parent="3">
          <mxGeometry x="95.5" y="212" width="80" height="40" as="geometry" />
        </mxCell>
        <mxCell id="WxXXP-2BDXsEtTycnM5P-49" value="no" style="edgeStyle=orthogonalEdgeStyle;html=1;align=left;verticalAlign=bottom;endArrow=open;endSize=8;strokeColor=#ff0000;rounded=0;" edge="1" source="WxXXP-2BDXsEtTycnM5P-48" parent="3" target="WxXXP-2BDXsEtTycnM5P-51">
          <mxGeometry x="-1" relative="1" as="geometry">
            <mxPoint x="205.5" y="232" as="targetPoint" />
          </mxGeometry>
        </mxCell>
        <mxCell id="WxXXP-2BDXsEtTycnM5P-50" value="yes" style="edgeStyle=orthogonalEdgeStyle;html=1;align=left;verticalAlign=top;endArrow=open;endSize=8;strokeColor=#ff0000;rounded=0;" edge="1" source="WxXXP-2BDXsEtTycnM5P-48" parent="3" target="WxXXP-2BDXsEtTycnM5P-52">
          <mxGeometry x="-1" relative="1" as="geometry">
            <mxPoint x="135.5" y="312" as="targetPoint" />
          </mxGeometry>
        </mxCell>
        <mxCell id="WxXXP-2BDXsEtTycnM5P-51" value="" style="ellipse;html=1;shape=endState;fillColor=#000000;strokeColor=#ff0000;" vertex="1" parent="3">
          <mxGeometry x="225.5" y="217" width="30" height="30" as="geometry" />
        </mxCell>
        <mxCell id="WxXXP-2BDXsEtTycnM5P-52" value="Hệ thống gửi OTP" style="rounded=1;whiteSpace=wrap;html=1;arcSize=40;fontColor=#000000;fillColor=#ffffc0;strokeColor=#ff0000;" vertex="1" parent="3">
          <mxGeometry x="75.5" y="312" width="120" height="40" as="geometry" />
        </mxCell>
        <mxCell id="WxXXP-2BDXsEtTycnM5P-58" value="" style="rhombus;whiteSpace=wrap;html=1;fontColor=#000000;fillColor=#ffffc0;strokeColor=#ff0000;" vertex="1" parent="3">
          <mxGeometry x="25.5" y="392" width="80" height="40" as="geometry" />
        </mxCell>
        <mxCell id="WxXXP-2BDXsEtTycnM5P-59" value="no" style="edgeStyle=orthogonalEdgeStyle;html=1;align=left;verticalAlign=bottom;endArrow=open;endSize=8;strokeColor=#ff0000;rounded=0;" edge="1" source="WxXXP-2BDXsEtTycnM5P-58" parent="3" target="WxXXP-2BDXsEtTycnM5P-61">
          <mxGeometry y="10" relative="1" as="geometry">
            <mxPoint x="65.5" y="512" as="targetPoint" />
            <mxPoint as="offset" />
          </mxGeometry>
        </mxCell>
        <mxCell id="WxXXP-2BDXsEtTycnM5P-60" value="yes" style="edgeStyle=orthogonalEdgeStyle;html=1;align=left;verticalAlign=top;endArrow=open;endSize=8;strokeColor=#ff0000;rounded=0;" edge="1" source="WxXXP-2BDXsEtTycnM5P-58" parent="3" target="WxXXP-2BDXsEtTycnM5P-62">
          <mxGeometry x="-1" relative="1" as="geometry">
            <mxPoint x="175.5" y="412" as="targetPoint" />
          </mxGeometry>
        </mxCell>
        <mxCell id="WxXXP-2BDXsEtTycnM5P-61" value="" style="ellipse;html=1;shape=endState;fillColor=#000000;strokeColor=#ff0000;" vertex="1" parent="3">
          <mxGeometry x="50.5" y="512" width="30" height="30" as="geometry" />
        </mxCell>
        <mxCell id="WxXXP-2BDXsEtTycnM5P-62" value="Tài khoản được kích hoạt" style="rounded=1;whiteSpace=wrap;html=1;arcSize=40;fontColor=#000000;fillColor=#ffffc0;strokeColor=#ff0000;" vertex="1" parent="3">
          <mxGeometry x="175.5" y="392" width="120" height="40" as="geometry" />
        </mxCell>
        <mxCell id="WxXXP-2BDXsEtTycnM5P-63" value="" style="edgeStyle=orthogonalEdgeStyle;html=1;verticalAlign=bottom;endArrow=open;endSize=8;strokeColor=#ff0000;rounded=0;" edge="1" source="WxXXP-2BDXsEtTycnM5P-62" parent="3">
          <mxGeometry relative="1" as="geometry">
            <mxPoint x="235.5" y="492" as="targetPoint" />
          </mxGeometry>
        </mxCell>
        <mxCell id="WxXXP-2BDXsEtTycnM5P-66" value="" style="edgeStyle=orthogonalEdgeStyle;rounded=0;orthogonalLoop=1;jettySize=auto;html=1;dashed=1;" edge="1" parent="3" source="WxXXP-2BDXsEtTycnM5P-67" target="WxXXP-2BDXsEtTycnM5P-62">
          <mxGeometry relative="1" as="geometry">
            <mxPoint x="205.5" y="382" as="targetPoint" />
          </mxGeometry>
        </mxCell>
        <mxCell id="WxXXP-2BDXsEtTycnM5P-67" value="Tài khoản" style="rounded=0;whiteSpace=wrap;html=1;" vertex="1" parent="3">
          <mxGeometry x="286" y="292" width="120" height="52" as="geometry" />
        </mxCell>
        <mxCell id="WxXXP-2BDXsEtTycnM5P-68" value="Chuyển về trang đăng nhập" style="rounded=1;whiteSpace=wrap;html=1;arcSize=40;fontColor=#000000;fillColor=#ffffc0;strokeColor=#ff0000;" vertex="1" parent="3">
          <mxGeometry x="175.5" y="492" width="120" height="40" as="geometry" />
        </mxCell>
        <mxCell id="WxXXP-2BDXsEtTycnM5P-69" value="" style="edgeStyle=orthogonalEdgeStyle;html=1;verticalAlign=bottom;endArrow=open;endSize=8;strokeColor=#ff0000;rounded=0;" edge="1" source="WxXXP-2BDXsEtTycnM5P-68" parent="3" target="WxXXP-2BDXsEtTycnM5P-70">
          <mxGeometry relative="1" as="geometry">
            <mxPoint x="325.5" y="512" as="targetPoint" />
          </mxGeometry>
        </mxCell>
        <mxCell id="WxXXP-2BDXsEtTycnM5P-70" value="" style="ellipse;html=1;shape=endState;fillColor=#000000;strokeColor=#ff0000;" vertex="1" parent="3">
          <mxGeometry x="331" y="497" width="30" height="30" as="geometry" />
        </mxCell>
        <mxCell id="11" value="" style="endArrow=open;strokeColor=#FF0000;endFill=1;rounded=0;" parent="1" source="8" target="WxXXP-2BDXsEtTycnM5P-44" edge="1">
          <mxGeometry relative="1" as="geometry">
            <mxPoint x="464.9545454545455" y="288" as="targetPoint" />
          </mxGeometry>
        </mxCell>
        <mxCell id="WxXXP-2BDXsEtTycnM5P-53" value="" style="edgeStyle=orthogonalEdgeStyle;html=1;verticalAlign=bottom;endArrow=open;endSize=8;strokeColor=#ff0000;rounded=0;" edge="1" source="WxXXP-2BDXsEtTycnM5P-52" parent="1" target="WxXXP-2BDXsEtTycnM5P-55">
          <mxGeometry relative="1" as="geometry">
            <mxPoint x="580" y="540" as="targetPoint" />
          </mxGeometry>
        </mxCell>
        <mxCell id="WxXXP-2BDXsEtTycnM5P-56" value="" style="edgeStyle=orthogonalEdgeStyle;html=1;verticalAlign=bottom;endArrow=open;endSize=8;strokeColor=#ff0000;rounded=0;" edge="1" parent="1" source="WxXXP-2BDXsEtTycnM5P-55" target="WxXXP-2BDXsEtTycnM5P-58">
          <mxGeometry relative="1" as="geometry">
            <mxPoint x="370" y="620" as="targetPoint" />
            <mxPoint x="530" y="470" as="sourcePoint" />
            <Array as="points">
              <mxPoint x="280" y="540" />
            </Array>
          </mxGeometry>
        </mxCell>
      </root>
    </mxGraphModel>
  </diagram>
</mxfile>
